<?xml version="1.0" encoding="utf-8"?>
<?xml-stylesheet type="text/xsl" href="rss1.xsl"?>
<rss version="2.0" xmlns:atom="http://www.w3.org/2005/Atom" xmlns:content="http://purl.org/rss/1.0/modules/content/" xmlns:dc="http://purl.org/dc/elements/1.1/" xmlns:media="http://search.yahoo.com/mrss/">
<channel>
 <title>Getty</title>
 <link>http://www.gettyimg.com/</link>
 <atom:link href="http://www.gettyimg.com/" rel="self" type="application/rss+xml" />

 
                <item>
                <title><![CDATA[【Requests】[REQ AUD] - Olivia Newton-John - A Celebration in Song (2008) qobuz]]></title>
                <link><![CDATA[https://sharemania.us/threads/olivia-newton-john-a-celebration-in-song-2008-qobuz.234030/]]></link>
                <description><![CDATA[<article>
<blockquote class="messageText SelectQuoteContainer ugc baseHtml">
lookin' for this, thx.<br>
<br>
<a href="https://www.qobuz.com/se-en/album/a-celebration-in-song-olivia-newton-john/sounnf4o8zgsb" target="_blank" class="externalLink" rel="nofollow">https://www.qobuz.com/se-en/album/a-celebration-in-song-olivia-newton-john/sounnf4o8zgsb</a>
<div class="messageTextEndMarker">&nbsp;</div>
</blockquote>
</article>]]></description>
                <author><![CDATA[Rush007]]></author>
                </item>

                
                <item>
                <title><![CDATA[【Cinema Center】SERIES - Dragon Tales: Sing and Dance in Dragon Land! (DVDRip DivX)]]></title>
                <link><![CDATA[https://sharemania.us/threads/dragon-tales-sing-and-dance-in-dragon-land-dvdrip-divx.234029/]]></link>
                <description><![CDATA[<article>
<blockquote class="messageText SelectQuoteContainer ugc baseHtml">
<b>Release Name</b><br>
Dragon Tales - Sing and Dance in Dragon Land! (DVDRip DivX)<br>
<br>
<b>Screenshot</b><br>
<img src="https://i.ibb.co/272RcGR/Dragon-Tales-Sing-and-Dance-in-Dragon-Land-DVDRip-Div-X-mkv-thumbs.jpgp" class="bbCodeImage LbImage" alt="[​IMG]" data-url="https://i.ibb.co/272RcGR/Dragon-Tales-Sing-and-Dance-in-Dragon-Land-DVDRip-Div-X-mkv-thumbs.jpgp" style=""><br>
<br>
<div class="ToggleTriggerAnchor bbCodeSpoilerContainer">
<button type="button" class="button bbCodeSpoilerButton ToggleTrigger Tooltip JsOnly" data-target="> .SpoilerTarget"><span>Spoiler: <span class="SpoilerTitle">Media Information</span></span></button>
<div class="SpoilerTarget bbCodeSpoilerText">General<br>
Unique ID : 235265034893691907962207577680807671171 (0xB0FE65C64A1980A9F67705F9297F3583)<br>
Complete name : Dragon Tales - Sing and Dance in Dragon Land! (DVDRip DivX).mkv<br>
Format : Matroska<br>
Format version : Version 4<br>
File size : 1.64 GiB<br>
Duration : 32 min 4 s<br>
Overall bit rate mode : Variable<br>
Overall bit rate : 7 303 kb/s<br>
Frame rate : 29.970 FPS<br>
Movie name : Dragon Tales: Sing and Dance in Dragon Land!<br>
Encoded date : 2005-08-02 16:00:00 UTC<br>
Writing application : MakeMKV v1.17.5 darwin(arm64-release)<br>
Writing library : libmakemkv v1.17.5 (1.3.10/1.5.2) darwin(arm64-release)<br>
<br>
Video<br>
ID : 1<br>
ID in the original source medium : 224 (0xE0)<br>
Format : MPEG Video<br>
Format version : Version 2<br>
Format profile : Main@Main<br>
Format settings : CustomMatrix / BVOP<br>
Format settings, BVOP : Yes<br>
Format settings, Matrix : Custom<br>
Format settings, GOP : M=3, N=15<br>
Format settings, picture structure : Frame<br>
Codec ID : V_MPEG2<br>
Codec ID/Info : MPEG 1 or 2 Video<br>
Duration : 32 min 4 s<br>
Bit rate mode : Variable<br>
Bit rate : 7 105 kb/s<br>
Maximum bit rate : 9 800 kb/s<br>
Width : 720 pixels<br>
Height : 480 pixels<br>
Display aspect ratio : 4:3<br>
Frame rate mode : Constant<br>
Frame rate : 29.970 (30000/1001) FPS<br>
Standard : NTSC<br>
Color space : YUV<br>
Chroma subsampling : 4:2:0<br>
Bit depth : 8 bits<br>
Scan type : Interlaced<br>
Scan order : Top Field First<br>
Compression mode : Lossy<br>
Bits/(Pixel*Frame) : 0.686<br>
Stream size : 1.59 GiB (97%)<br>
Language : English<br>
Default : No<br>
Forced : No<br>
Original source medium : DVD-Video<br>
<br>
Audio<br>
ID : 2<br>
ID in the original source medium : 189 (0xBD)128 (0x80)<br>
Format : AC-3<br>
Format/Info : Audio Coding 3<br>
Commercial name : Dolby Digital<br>
Codec ID : A_AC3<br>
Duration : 32 min 4 s<br>
Bit rate mode : Constant<br>
Bit rate : 192 kb/s<br>
Channel(s) : 2 channels<br>
Channel layout : L R<br>
Sampling rate : 48.0 kHz<br>
Frame rate : 31.250 FPS (1536 SPF)<br>
Compression mode : Lossy<br>
Stream size : 44.0 MiB (3%)<br>
Title : Stereo<br>
Language : English (US)<br>
Service kind : Complete Main<br>
Default : Yes<br>
Forced : No<br>
Original source medium : DVD-Video<br>
<br>
Menu<br>
00:00:00.000 : en:Chapter 01<br>
00:01:35.128 : en:Chapter 02<br>
00:03:07.954 : en:Chapter 03<br>
00:04:43.149 : en:Chapter 04<br>
00:06:18.478 : en:Chapter 05<br>
00:07:52.905 : en:Chapter 06<br>
00:09:27.867 : en:Chapter 07<br>
00:11:02.662 : en:Chapter 08<br>
00:12:37.389 : en:Chapter 09<br>
00:14:12.384 : en:Chapter 10<br>
00:15:42.808 : en:Chapter 11<br>
00:17:17.936 : en:Chapter 12<br>
00:18:52.998 : en:Chapter 13<br>
00:20:27.459 : en:Chapter 14<br>
00:22:02.354 : en:Chapter 15<br>
00:23:37.315 : en:Chapter 16<br>
00:25:10.742 : en:Chapter 17<br>
00:26:44.869 : en:Chapter 18<br>
00:28:20.031 : en:Chapter 19<br>
00:29:55.760 : en:Chapter 20<br>
00:31:31.289 : en:Chapter 21<br>
00:32:03.421 : en:Chapter 22</div>
</div><br>
<b>Download</b><br>
<div class="bbCodeBlock bbCodeVfcHH HiddenContent">
<div class="attribution type">Hidden Content:</div>
<blockquote>You must either reply or click 'Like' to see the hidden information contained here.</blockquote>
</div>
<div class="messageTextEndMarker">&nbsp;</div>
</blockquote>
</article>]]></description>
                <author><![CDATA[Austin Zimmermann]]></author>
                </item>

                </channel></rss>